<svg xmlns="http://www.w3.org/2000/svg" aria-hidden="true" style="position:absolute;width:0;height:0;overflow:hidden">
  <defs>
    <symbol id="icon-logo2" viewBox="0 0 202 32">
      <path d="M0 .5h98v31H0V.5z"/>
      <path d="M4.336 26.5V6.9h4.48l1.624 10.08L12.036 6.9H16.6v19.628h-3.64v-9.464L11.364 26.5H9.488l-1.596-9.352V26.5H4.336zM24.499 6.9l2.968 19.6h-3.556l-.392-3.024h-2.744l-.42 3.024h-3.5l2.94-19.6h4.704zm-1.344 13.44-1.008-8.232-.952 8.232h1.96zM31.611 6.9c.653 0 1.269.103 1.848.308a4.301 4.301 0 0 1 1.596.98c.467.429.849.989 1.148 1.68.317.691.523 1.531.616 2.52.131 1.213.093 2.231-.112 3.052-.187.803-.42 1.447-.7 1.932-.317.597-.7 1.064-1.148 1.4l2.324 7.728h-3.584l-1.708-6.58-.784.14v6.44h-3.528l.028-19.6h4.004zm-.504 9.688c.429-.037.784-.14 1.064-.308.28-.187.513-.42.7-.7s.317-.597.392-.952c.075-.355.112-.719.112-1.092 0-.392-.037-.775-.112-1.148a3.407 3.407 0 0 0-.364-1.036 1.953 1.953 0 0 0-.7-.756c-.28-.187-.644-.28-1.092-.28v6.272zM39.863 6.9l1.568 11.816L43.083 6.9h3.528l-3.108 19.6h-4.144L36.223 6.9h3.64zM46.833 26.5V6.9h6.58v3.472h-2.968v4.424h2.996v3.64h-3.164v4.424h3.192v3.64h-6.636zM58.041 6.872v16.1h3.024v3.556h-6.496V6.9l3.472-.028zM61.925 16.7c0-1.475.131-2.809.392-4.004.261-1.213.625-2.249 1.092-3.108s1.036-1.521 1.708-1.988 1.409-.7 2.212-.7c.803 0 1.531.233 2.184.7.672.467 1.241 1.129 1.708 1.988s.831 1.895 1.092 3.108c.261 1.195.392 2.529.392 4.004s-.131 2.819-.392 4.032c-.261 1.195-.625 2.221-1.092 3.08s-1.036 1.521-1.708 1.988c-.653.467-1.381.7-2.184.7s-1.54-.233-2.212-.7c-.672-.467-1.241-1.129-1.708-1.988s-.831-1.885-1.092-3.08c-.261-1.213-.392-2.557-.392-4.032zm3.472.056c0 .933.047 1.783.14 2.548s.224 1.428.392 1.988c.168.541.364.961.588 1.26.243.299.504.448.784.448s.532-.149.756-.448c.243-.299.439-.719.588-1.26.168-.56.299-1.223.392-1.988s.14-1.615.14-2.548-.047-1.783-.14-2.548c-.093-.784-.224-1.447-.392-1.988-.149-.541-.345-.961-.588-1.26-.224-.299-.476-.448-.756-.448s-.541.149-.784.448c-.224.299-.42.719-.588 1.26s-.299 1.204-.392 1.988c-.093.765-.14 1.615-.14 2.548zM84.241 16.812c0 .653-.009 1.353-.028 2.1 0 .728-.047 1.456-.14 2.184-.075.709-.215 1.391-.42 2.044s-.513 1.232-.924 1.736c-.392.485-.905.877-1.54 1.176s-1.419.448-2.352.448c-1.288 0-2.296-.224-3.024-.672-.709-.448-1.241-1.083-1.596-1.904-.336-.84-.541-1.848-.616-3.024a83.025 83.025 0 0 1-.084-3.92V6.872h3.444v9.94c.019 1.157.093 2.184.224 3.08.056.392.131.775.224 1.148.093.355.205.681.336.98.149.28.308.513.476.7a.902.902 0 0 0 .616.252c.28 0 .513-.084.7-.252.205-.187.373-.42.504-.7.149-.299.261-.625.336-.98.093-.373.168-.756.224-1.148.112-.896.159-1.923.14-3.08V6.9h3.5v9.912zM93.176 6.9c.019 0 .028.187.028.56v1.176c0 .523-.009 1.111-.028 1.764-.579 0-1.167.056-1.764.168a5.693 5.693 0 0 0-1.568.476 3.798 3.798 0 0 0-1.12.756 1.47 1.47 0 0 0-.42 1.036c0 .336.121.625.364.868.261.243.569.485.924.728.373.243.775.513 1.204.812.448.28.849.616 1.204 1.008.373.392.681.868.924 1.428.261.56.392 1.241.392 2.044 0 1.195-.224 2.221-.672 3.08a5.89 5.89 0 0 1-1.792 2.1c-.747.541-1.624.943-2.632 1.204s-2.072.392-3.192.392V23c.336 0 .775-.056 1.316-.168s1.064-.299 1.568-.56c.523-.261.971-.607 1.344-1.036s.551-.961.532-1.596c0-.317-.121-.588-.364-.812a4.784 4.784 0 0 0-.924-.7 39.911 39.911 0 0 0-1.148-.756 7.303 7.303 0 0 1-1.176-1.008 5.644 5.644 0 0 1-.896-1.456c-.224-.56-.336-1.251-.336-2.072 0-.859.243-1.652.728-2.38.504-.728 1.148-1.353 1.932-1.876s1.661-.933 2.632-1.232a10.118 10.118 0 0 1 2.94-.448zM109.784 6.9l2.968 19.6h-3.556l-.392-3.024h-2.744l-.42 3.024h-3.5l2.94-19.6h4.704zm-1.344 13.44-1.008-8.232-.952 8.232h1.96zM116.196 6.872c.896 0 1.671.168 2.324.504.654.336 1.214.784 1.68 1.344s.85 1.213 1.148 1.96c.299.728.532 1.484.7 2.268s.28 1.577.336 2.38c.075.784.112 1.512.112 2.184 0 1.493-.158 2.753-.476 3.78-.298 1.027-.69 1.867-1.176 2.52-.466.653-.961 1.167-1.484 1.54a6.28 6.28 0 0 1-3.164 1.12h-3.444l.056-19.6h3.388zm.056 16.632.196-.028c.131-.019.299-.084.504-.196.224-.131.458-.327.7-.588.262-.261.495-.635.7-1.12.224-.485.402-1.092.532-1.82.15-.747.224-1.661.224-2.744 0-.28-.009-.644-.028-1.092a13.383 13.383 0 0 0-.14-1.428 10.701 10.701 0 0 0-.28-1.512 5.97 5.97 0 0 0-.532-1.372 2.75 2.75 0 0 0-.784-.98c-.317-.261-.7-.392-1.148-.392l.056 13.272zM127.035 6.9l1.568 11.816L130.255 6.9h3.528l-3.108 19.6h-4.144l-3.136-19.6h3.64zM134.004 26.5V6.9h6.58v3.472h-2.968v4.424h2.996v3.64h-3.164v4.424h3.192v3.64h-6.636zM141.713 26.5V6.9h3.5l2.996 10.136V6.9h3.584v19.6h-3.584l-3.024-9.352v9.38l-3.472-.028zM163.6 6.9v3.556h-3.528V26.5h-3.444V10.456h-3.78V6.9H163.6zM175.788 16.812c0 .653-.01 1.353-.028 2.1 0 .728-.047 1.456-.14 2.184a10.496 10.496 0 0 1-.42 2.044 5.2 5.2 0 0 1-.924 1.736c-.392.485-.906.877-1.54 1.176-.635.299-1.419.448-2.352.448-1.288 0-2.296-.224-3.024-.672-.71-.448-1.242-1.083-1.596-1.904-.336-.84-.542-1.848-.616-3.024a83.025 83.025 0 0 1-.084-3.92V6.872h3.444v9.94c.018 1.157.093 2.184.224 3.08.056.392.13.775.224 1.148.093.355.205.681.336.98.149.28.308.513.476.7a.9.9 0 0 0 .616.252c.28 0 .513-.084.7-.252.205-.187.373-.42.504-.7.149-.299.261-.625.336-.98.093-.373.168-.756.224-1.148.112-.896.158-1.923.14-3.08V6.9h3.5v9.912zM180.635 6.9c.653 0 1.269.103 1.848.308a4.301 4.301 0 0 1 1.596.98c.466.429.849.989 1.148 1.68.317.691.522 1.531.616 2.52.13 1.213.093 2.231-.112 3.052-.187.803-.42 1.447-.7 1.932-.318.597-.7 1.064-1.148 1.4l2.324 7.728h-3.584l-1.708-6.58-.784.14v6.44h-3.528l.028-19.6h4.004zm-.504 9.688c.429-.037.784-.14 1.064-.308.28-.187.513-.42.7-.7s.317-.597.392-.952c.074-.355.112-.719.112-1.092 0-.392-.038-.775-.112-1.148a3.407 3.407 0 0 0-.364-1.036 1.96 1.96 0 0 0-.7-.756c-.28-.187-.644-.28-1.092-.28v6.272z"/>
      <path d="M185.246 26.5V6.9h6.58v3.472h-2.968v4.424h2.996v3.64h-3.164v4.424h3.192v3.64h-6.636zM201.047 6.9c.018 0 .028.187.028.56v1.176c0 .523-.01 1.111-.028 1.764-.579 0-1.167.056-1.764.168a5.683 5.683 0 0 0-1.568.476 3.785 3.785 0 0 0-1.12.756 1.47 1.47 0 0 0-.42 1.036c0 .336.121.625.364.868.261.243.569.485.924.728.373.243.774.513 1.204.812.448.28.849.616 1.204 1.008.373.392.681.868.924 1.428.261.56.392 1.241.392 2.044 0 1.195-.224 2.221-.672 3.08a5.9 5.9 0 0 1-1.792 2.1c-.747.541-1.624.943-2.632 1.204s-2.072.392-3.192.392V23c.336 0 .774-.056 1.316-.168a6.077 6.077 0 0 0 1.568-.56c.522-.261.97-.607 1.344-1.036.373-.429.55-.961.532-1.596 0-.317-.122-.588-.364-.812a4.784 4.784 0 0 0-.924-.7 41.355 41.355 0 0 0-1.148-.756 7.303 7.303 0 0 1-1.176-1.008 5.616 5.616 0 0 1-.896-1.456c-.224-.56-.336-1.251-.336-2.072 0-.859.242-1.652.728-2.38.504-.728 1.148-1.353 1.932-1.876s1.661-.933 2.632-1.232a10.118 10.118 0 0 1 2.94-.448zM104 1.5h96M104 31.5h96"/>
    </symbol>
    <symbol id="icon-logo" viewBox="0 0 202 32">
      <path fill="#ed1d24" d="M0 .5h98v31H0V.5z" style="fill:var(--color1, #ed1d24)"/>
      <path fill="#fafafa" d="M4.336 26.5V6.9h4.48l1.624 10.08L12.036 6.9H16.6v19.628h-3.64v-9.464L11.364 26.5H9.488l-1.596-9.352V26.5H4.336zM24.499 6.9l2.968 19.6h-3.556l-.392-3.024h-2.744l-.42 3.024h-3.5l2.94-19.6h4.704zm-1.344 13.44-1.008-8.232-.952 8.232h1.96zM31.611 6.9c.653 0 1.269.103 1.848.308a4.301 4.301 0 0 1 1.596.98c.467.429.849.989 1.148 1.68.317.691.523 1.531.616 2.52.131 1.213.093 2.231-.112 3.052-.187.803-.42 1.447-.7 1.932-.317.597-.7 1.064-1.148 1.4l2.324 7.728h-3.584l-1.708-6.58-.784.14v6.44h-3.528l.028-19.6h4.004zm-.504 9.688c.429-.037.784-.14 1.064-.308.28-.187.513-.42.7-.7s.317-.597.392-.952c.075-.355.112-.719.112-1.092 0-.392-.037-.775-.112-1.148a3.407 3.407 0 0 0-.364-1.036 1.953 1.953 0 0 0-.7-.756c-.28-.187-.644-.28-1.092-.28v6.272zM39.863 6.9l1.568 11.816L43.083 6.9h3.528l-3.108 19.6h-4.144L36.223 6.9h3.64zM46.833 26.5V6.9h6.58v3.472h-2.968v4.424h2.996v3.64h-3.164v4.424h3.192v3.64h-6.636zM58.041 6.872v16.1h3.024v3.556h-6.496V6.9l3.472-.028zM61.925 16.7c0-1.475.131-2.809.392-4.004.261-1.213.625-2.249 1.092-3.108s1.036-1.521 1.708-1.988 1.409-.7 2.212-.7c.803 0 1.531.233 2.184.7.672.467 1.241 1.129 1.708 1.988s.831 1.895 1.092 3.108c.261 1.195.392 2.529.392 4.004s-.131 2.819-.392 4.032c-.261 1.195-.625 2.221-1.092 3.08s-1.036 1.521-1.708 1.988c-.653.467-1.381.7-2.184.7s-1.54-.233-2.212-.7c-.672-.467-1.241-1.129-1.708-1.988s-.831-1.885-1.092-3.08c-.261-1.213-.392-2.557-.392-4.032zm3.472.056c0 .933.047 1.783.14 2.548s.224 1.428.392 1.988c.168.541.364.961.588 1.26.243.299.504.448.784.448s.532-.149.756-.448c.243-.299.439-.719.588-1.26.168-.56.299-1.223.392-1.988s.14-1.615.14-2.548-.047-1.783-.14-2.548c-.093-.784-.224-1.447-.392-1.988-.149-.541-.345-.961-.588-1.26-.224-.299-.476-.448-.756-.448s-.541.149-.784.448c-.224.299-.42.719-.588 1.26s-.299 1.204-.392 1.988c-.093.765-.14 1.615-.14 2.548zM84.241 16.812c0 .653-.009 1.353-.028 2.1 0 .728-.047 1.456-.14 2.184-.075.709-.215 1.391-.42 2.044s-.513 1.232-.924 1.736c-.392.485-.905.877-1.54 1.176s-1.419.448-2.352.448c-1.288 0-2.296-.224-3.024-.672-.709-.448-1.241-1.083-1.596-1.904-.336-.84-.541-1.848-.616-3.024a83.025 83.025 0 0 1-.084-3.92V6.872h3.444v9.94c.019 1.157.093 2.184.224 3.08.056.392.131.775.224 1.148.093.355.205.681.336.98.149.28.308.513.476.7a.902.902 0 0 0 .616.252c.28 0 .513-.084.7-.252.205-.187.373-.42.504-.7.149-.299.261-.625.336-.98.093-.373.168-.756.224-1.148.112-.896.159-1.923.14-3.08V6.9h3.5v9.912zM93.176 6.9c.019 0 .028.187.028.56v1.176c0 .523-.009 1.111-.028 1.764-.579 0-1.167.056-1.764.168a5.693 5.693 0 0 0-1.568.476 3.798 3.798 0 0 0-1.12.756 1.47 1.47 0 0 0-.42 1.036c0 .336.121.625.364.868.261.243.569.485.924.728.373.243.775.513 1.204.812.448.28.849.616 1.204 1.008.373.392.681.868.924 1.428.261.56.392 1.241.392 2.044 0 1.195-.224 2.221-.672 3.08a5.89 5.89 0 0 1-1.792 2.1c-.747.541-1.624.943-2.632 1.204s-2.072.392-3.192.392V23c.336 0 .775-.056 1.316-.168s1.064-.299 1.568-.56c.523-.261.971-.607 1.344-1.036s.551-.961.532-1.596c0-.317-.121-.588-.364-.812a4.784 4.784 0 0 0-.924-.7 39.911 39.911 0 0 0-1.148-.756 7.303 7.303 0 0 1-1.176-1.008 5.644 5.644 0 0 1-.896-1.456c-.224-.56-.336-1.251-.336-2.072 0-.859.243-1.652.728-2.38.504-.728 1.148-1.353 1.932-1.876s1.661-.933 2.632-1.232a10.118 10.118 0 0 1 2.94-.448zM109.784 6.9l2.968 19.6h-3.556l-.392-3.024h-2.744l-.42 3.024h-3.5l2.94-19.6h4.704zm-1.344 13.44-1.008-8.232-.952 8.232h1.96zM116.196 6.872c.896 0 1.671.168 2.324.504.654.336 1.214.784 1.68 1.344s.85 1.213 1.148 1.96c.299.728.532 1.484.7 2.268s.28 1.577.336 2.38c.075.784.112 1.512.112 2.184 0 1.493-.158 2.753-.476 3.78-.298 1.027-.69 1.867-1.176 2.52-.466.653-.961 1.167-1.484 1.54a6.28 6.28 0 0 1-3.164 1.12h-3.444l.056-19.6h3.388zm.056 16.632.196-.028c.131-.019.299-.084.504-.196.224-.131.458-.327.7-.588.262-.261.495-.635.7-1.12.224-.485.402-1.092.532-1.82.15-.747.224-1.661.224-2.744 0-.28-.009-.644-.028-1.092a13.383 13.383 0 0 0-.14-1.428 10.701 10.701 0 0 0-.28-1.512 5.97 5.97 0 0 0-.532-1.372 2.75 2.75 0 0 0-.784-.98c-.317-.261-.7-.392-1.148-.392l.056 13.272zM127.035 6.9l1.568 11.816L130.255 6.9h3.528l-3.108 19.6h-4.144l-3.136-19.6h3.64zM134.004 26.5V6.9h6.58v3.472h-2.968v4.424h2.996v3.64h-3.164v4.424h3.192v3.64h-6.636zM141.713 26.5V6.9h3.5l2.996 10.136V6.9h3.584v19.6h-3.584l-3.024-9.352v9.38l-3.472-.028zM163.6 6.9v3.556h-3.528V26.5h-3.444V10.456h-3.78V6.9H163.6zM175.788 16.812c0 .653-.01 1.353-.028 2.1 0 .728-.047 1.456-.14 2.184a10.496 10.496 0 0 1-.42 2.044 5.2 5.2 0 0 1-.924 1.736c-.392.485-.906.877-1.54 1.176-.635.299-1.419.448-2.352.448-1.288 0-2.296-.224-3.024-.672-.71-.448-1.242-1.083-1.596-1.904-.336-.84-.542-1.848-.616-3.024a83.025 83.025 0 0 1-.084-3.92V6.872h3.444v9.94c.018 1.157.093 2.184.224 3.08.056.392.13.775.224 1.148.093.355.205.681.336.98.149.28.308.513.476.7a.9.9 0 0 0 .616.252c.28 0 .513-.084.7-.252.205-.187.373-.42.504-.7.149-.299.261-.625.336-.98.093-.373.168-.756.224-1.148.112-.896.158-1.923.14-3.08V6.9h3.5v9.912zM180.635 6.9c.653 0 1.269.103 1.848.308a4.301 4.301 0 0 1 1.596.98c.466.429.849.989 1.148 1.68.317.691.522 1.531.616 2.52.13 1.213.093 2.231-.112 3.052-.187.803-.42 1.447-.7 1.932-.318.597-.7 1.064-1.148 1.4l2.324 7.728h-3.584l-1.708-6.58-.784.14v6.44h-3.528l.028-19.6h4.004zm-.504 9.688c.429-.037.784-.14 1.064-.308.28-.187.513-.42.7-.7s.317-.597.392-.952c.074-.355.112-.719.112-1.092 0-.392-.038-.775-.112-1.148a3.407 3.407 0 0 0-.364-1.036 1.96 1.96 0 0 0-.7-.756c-.28-.187-.644-.28-1.092-.28v6.272z" style="fill:var(--color2, #fafafa)"/>
      <path fill="#fafafa" d="M185.246 26.5V6.9h6.58v3.472h-2.968v4.424h2.996v3.64h-3.164v4.424h3.192v3.64h-6.636zM201.047 6.9c.018 0 .028.187.028.56v1.176c0 .523-.01 1.111-.028 1.764-.579 0-1.167.056-1.764.168a5.683 5.683 0 0 0-1.568.476 3.785 3.785 0 0 0-1.12.756 1.47 1.47 0 0 0-.42 1.036c0 .336.121.625.364.868.261.243.569.485.924.728.373.243.774.513 1.204.812.448.28.849.616 1.204 1.008.373.392.681.868.924 1.428.261.56.392 1.241.392 2.044 0 1.195-.224 2.221-.672 3.08a5.9 5.9 0 0 1-1.792 2.1c-.747.541-1.624.943-2.632 1.204s-2.072.392-3.192.392V23c.336 0 .774-.056 1.316-.168a6.077 6.077 0 0 0 1.568-.56c.522-.261.97-.607 1.344-1.036.373-.429.55-.961.532-1.596 0-.317-.122-.588-.364-.812a4.784 4.784 0 0 0-.924-.7 41.355 41.355 0 0 0-1.148-.756 7.303 7.303 0 0 1-1.176-1.008 5.616 5.616 0 0 1-.896-1.456c-.224-.56-.336-1.251-.336-2.072 0-.859.242-1.652.728-2.38.504-.728 1.148-1.353 1.932-1.876s1.661-.933 2.632-1.232a10.118 10.118 0 0 1 2.94-.448z" style="fill:var(--color2, #fafafa)"/>
      <path fill="none" stroke="#fafafa" d="M104 1.5h96M104 31.5h96" style="stroke:var(--color2, #fafafa)"/>
    </symbol>
    <symbol id="icon-lines" viewBox="0 0 190 239">
          <line x1="315.253" y1="129.271" x2="-1.2426" y2="0.926681" stroke="white" stroke-width="2"/>
          <line x1="307.361" y1="148.732" x2="-9.13518" y2="20.3874" stroke="white" stroke-width="2"/>
          <line x1="299.47" y1="168.193" x2="-17.0258" y2="39.8483" stroke="white" stroke-width="2"/>
          <line x1="291.577" y1="187.654" x2="-24.9184" y2="59.309" stroke="white" stroke-width="2"/>
          <line x1="283.687" y1="207.115" x2="-32.809" y2="78.7698" stroke="white" stroke-width="2"/>
          <line x1="275.794" y1="226.575" x2="-40.7016" y2="98.2305" stroke="white" stroke-width="2"/>
          <line x1="267.904" y1="246.036" x2="-48.5922" y2="117.691" stroke="white" stroke-width="2"/>
          <line x1="260.011" y1="265.497" x2="-56.4848" y2="137.152" stroke="white" stroke-width="2"/>
          <line x1="252.12" y1="284.958" x2="-64.3754" y2="156.613" stroke="white" stroke-width="2"/>
    </symbol>
    <symbol id="icon-line-triangle" viewBox="0 0 1013 32">
      <path d="M26.667 13.333l-26.667-12.729v30.792l26.667-12.729v-5.333zM986.667 18.667l26.667 12.729v-30.792l-26.667 12.729v5.333zM24 18.667h965.333v-5.333h-965.333v5.333z">
      </path>
    </symbol>
    <symbol id="icon-chevron-right" viewBox="0 0 24 32">
      <path d="M2.24 3.76 14.453 16 2.24 28.24 6 32l16-16L6 0 2.24 3.76z"/>
    </symbol>
    <symbol id="icon-facebook" viewBox="0 0 18 32">
      <path d="M14.45 5.602h2.924V.655a40.727 40.727 0 0 0-4.262-.218c-4.231 0-7.124 2.582-7.124 7.311v4.076H1.212v5.538h4.776v14.187h5.724V17.362h4.76l.716-5.538h-5.476V8.293c0-1.633.436-2.691 2.738-2.691z"/>
    </symbol>
    <symbol id="icon-chevron-left" viewBox="0 0 24 32">
      <path d="M21.76 3.76 9.547 16 21.76 28.24 18 32 2 16 18 0l3.76 3.76z"/>
    </symbol>
    <symbol id="icon-chevron-down" viewBox="0 0 32 32">
      <path stroke-linecap="round" stroke-linejoin="round" stroke-width="3.556" d="m8 12 8 8 8-8"/>
    </symbol>
    <symbol id="icon-x" viewBox="0 0 32 32">
      <path d="M24.325 3h4.412l-9.637 11.012 11.338 14.988h-8.875l-6.956-9.087-7.95 9.087h-4.419l10.306-11.781-10.869-14.219h9.1l6.281 8.306 7.269-8.306zM22.775 26.363h2.444l-15.775-20.863h-2.625l15.956 20.863z"></path>
    </symbol>
    <symbol id="icon-instagram" viewBox="0 0 32 32">
      <path d="M23.983 6.229a1.794 1.794 0 0 0-1.758 2.141 1.794 1.794 0 0 0 2.443 1.306 1.79 1.79 0 0 0 1.106-1.656 1.792 1.792 0 0 0-1.792-1.792zm6.869 3.614a11.33 11.33 0 0 0-.687-3.629 7.38 7.38 0 0 0-1.732-2.643 7.01 7.01 0 0 0-2.643-1.717 10.905 10.905 0 0 0-3.629-.702c-1.583-.09-2.091-.09-6.152-.09s-4.57 0-6.152.09a10.905 10.905 0 0 0-3.629.702 7.135 7.135 0 0 0-2.643 1.717 7.01 7.01 0 0 0-1.717 2.643 10.905 10.905 0 0 0-.702 3.629c-.09 1.583-.09 2.091-.09 6.153s0 4.57.09 6.152c.026 1.241.263 2.468.702 3.629.365 1 .952 1.904 1.717 2.643a7.135 7.135 0 0 0 2.643 1.717c1.161.439 2.388.676 3.629.702 1.583.09 2.091.09 6.152.09s4.57 0 6.152-.09a10.905 10.905 0 0 0 3.629-.702c1-.365 1.904-.952 2.643-1.717a7.243 7.243 0 0 0 1.732-2.643 11.33 11.33 0 0 0 .687-3.629c0-1.583.09-2.091.09-6.152s0-4.57-.09-6.153zm-2.688 12.126a8.39 8.39 0 0 1-.508 2.778 4.556 4.556 0 0 1-1.12 1.717 4.763 4.763 0 0 1-1.717 1.12 8.39 8.39 0 0 1-2.778.508c-1.493.075-2.046.09-5.973.09s-4.48 0-5.973-.09a8.566 8.566 0 0 1-2.897-.448 4.885 4.885 0 0 1-1.643-1.12 4.48 4.48 0 0 1-1.105-1.717 8.25 8.25 0 0 1-.597-2.837c0-1.493-.09-2.046-.09-5.973s0-4.48.09-5.973a8.281 8.281 0 0 1 .523-2.837 4.482 4.482 0 0 1 1.18-1.643 4.7 4.7 0 0 1 1.643-1.195 8.58 8.58 0 0 1 2.837-.508c1.493 0 2.046-.09 5.973-.09s4.48 0 5.973.09a8.39 8.39 0 0 1 2.778.508 4.56 4.56 0 0 1 1.777 1.195c.489.459.872 1.02 1.12 1.643a8.37 8.37 0 0 1 .508 2.837c.075 1.493.09 2.046.09 5.973s-.015 4.48-.09 5.973zM16.008 8.335a7.667 7.667 0 0 0-7.067 4.739 7.66 7.66 0 0 0 10.017 9.997 7.657 7.657 0 0 0 4.726-7.077 7.645 7.645 0 0 0-7.675-7.66zm0 12.634a4.979 4.979 0 0 1-4.595-3.07 4.975 4.975 0 0 1 3.624-6.78 4.974 4.974 0 0 1 5.564 6.781 4.965 4.965 0 0 1-2.691 2.691 4.97 4.97 0 0 1-1.903.379z"/>
    </symbol>
    <symbol id="icon-arrow" viewBox="0 0 32 32">
        <path stroke-linejoin="miter" stroke-linecap="butt" stroke-miterlimit="4" stroke-width="0.4706" d="M27.453 7.096l-23.963 23.963-2.549-2.549 23.963-23.963h-23.963v-3.605h30.118v30.118h-3.605v-23.963z"></path>
    </symbol>
    <symbol id="icon-search" viewBox="0 0 32 32">
      <path stroke-linecap="round" stroke-linejoin="round" stroke-width="3.556" d="M14.667 25.333c5.891 0 10.667-4.776 10.667-10.667S20.558 3.999 14.667 3.999 4 8.775 4 14.666s4.776 10.667 10.667 10.667zM28 28l-5.8-5.8"/>
    </symbol>
    <symbol id="icon-close" viewBox="0 0 32 32">
      <path stroke-linejoin="round" stroke-linecap="round" stroke-miterlimit="4" stroke-width="2.2857" d="M24 8l-16 16"></path>
      <path stroke-linejoin="round" stroke-linecap="round" stroke-miterlimit="4" stroke-width="2.2857" d="M8 8l16 16"></path>
    </symbol>
    <symbol id="icon-reset" viewBox="0 0 32 32">
      <path d="M32 12h-12l4.485-4.485c-2.267-2.266-5.28-3.515-8.485-3.515s-6.219 1.248-8.485 3.515c-2.266 2.267-3.515 5.28-3.515 8.485s1.248 6.219 3.515 8.485c2.267 2.266 5.28 3.515 8.485 3.515s6.219-1.248 8.485-3.515c0.189-0.189 0.371-0.384 0.546-0.583l3.010 2.634c-2.933 3.349-7.239 5.464-12.041 5.464-8.837 0-16-7.163-16-16s7.163-16 16-16c4.418 0 8.418 1.791 11.313 4.687l4.687-4.687v12z"></path>
    </symbol>
  </defs>
</svg>
